<svg width="current" height="67" viewBox="0 0 68 67" fill="none" xmlns="http://www.w3.org/2000/svg">
<circle cx="34.1074" cy="33.4887" r="33.4887" fill="white"/>
<mask id="mask0_1519_1826" style="mask-type:luminance" maskUnits="userSpaceOnUse" x="34" y="31" width="13" height="13">
<path d="M46.7036 33.7864C46.7036 32.8609 46.6044 31.9683 46.4722 31.1089H34.0762V36.1995H41.1502C40.8527 37.8523 39.9271 39.2407 38.5387 40.1662V43.4718H42.7699C45.2491 41.1579 46.7036 37.7862 46.7036 33.7864Z" fill="white"/>
</mask>
<g mask="url(#mask0_1519_1826)">
<path d="M54.0088 23.8035H26.8037V50.7442H54.0088V23.8035Z" fill="#3E82F1"/>
</g>
<mask id="mask1_1519_1826" style="mask-type:luminance" maskUnits="userSpaceOnUse" x="22" y="36" width="21" height="11">
<path d="M34.0728 46.6449C37.6098 46.6449 40.5848 45.4549 42.7665 43.4715L38.5353 40.1659C37.3453 40.9593 35.8578 41.422 34.0728 41.422C30.6349 41.422 27.7591 39.1081 26.7343 36.0009H22.3379V39.4056C24.5196 43.7029 28.9491 46.6449 34.0728 46.6449Z" fill="white"/>
</mask>
<g mask="url(#mask1_1519_1826)">
<path d="M50.0721 28.6954H15.0327V53.9172H50.0721V28.6954Z" fill="#32A753"/>
</g>
<mask id="mask2_1519_1826" style="mask-type:luminance" maskUnits="userSpaceOnUse" x="20" y="27" width="7" height="13">
<path d="M26.7384 36.0006C26.474 35.2072 26.3417 34.3808 26.3417 33.4883C26.3417 32.6289 26.507 31.7694 26.7384 30.9761V27.6044H22.342C21.4495 29.3894 20.9536 31.3728 20.9536 33.4883C20.9536 35.6039 21.4495 37.6203 22.342 39.3723L26.7384 36.0006Z" fill="white"/>
</mask>
<g mask="url(#mask2_1519_1826)">
<path d="M34.0435 20.2993H13.6479V46.6779H34.0435V20.2993Z" fill="#F9BB00"/>
</g>
<mask id="mask3_1519_1826" style="mask-type:luminance" maskUnits="userSpaceOnUse" x="22" y="20" width="21" height="11">
<path d="M34.0728 25.5884C35.99 25.5884 37.742 26.2495 39.0973 27.5387L42.8657 23.7703C40.5848 21.6548 37.6098 20.3325 34.0728 20.3325C28.9491 20.3325 24.4865 23.2745 22.3379 27.5718L26.7343 30.9765C27.7591 27.9023 30.668 25.5884 34.0728 25.5884Z" fill="white"/>
</mask>
<g mask="url(#mask3_1519_1826)">
<path d="M50.1712 13.0603H15.0327V38.282H50.1712V13.0603Z" fill="#E74133"/>
</g>
</svg>
