<svg width="25" height="24" viewBox="0 0 25 24" fill="none" xmlns="http://www.w3.org/2000/svg">
<path d="M6.87324 2C5.36089 2 3.85088 2.59864 2.7101 3.79654C0.428516 6.19232 0.431418 10.0278 2.7101 12.4251L11.451 21.6238C11.5284 21.705 11.6216 21.7697 11.7247 21.8139C11.8279 21.8581 11.939 21.8809 12.0513 21.8809C12.1635 21.8809 12.2746 21.8581 12.3778 21.8139C12.481 21.7697 12.5741 21.705 12.6516 21.6238C15.5684 18.5609 18.4842 15.4967 21.4011 12.4338C23.6826 10.038 23.6826 6.20099 21.4011 3.80518C19.1195 1.40938 15.3477 1.40933 13.0662 3.80518L12.0556 4.86756L11.0364 3.79654C9.89558 2.59864 8.3856 2 6.87324 2ZM6.87324 3.6238C7.93843 3.6238 9.00154 4.06063 9.83583 4.93666L11.4596 6.63819C11.5371 6.71945 11.6302 6.78413 11.7334 6.82833C11.8366 6.87253 11.9477 6.89532 12.0599 6.89532C12.1722 6.89532 12.2832 6.87253 12.3864 6.82833C12.4896 6.78413 12.5827 6.71945 12.6602 6.63819L14.2754 4.9453C15.9439 3.19321 18.532 3.19325 20.2005 4.9453C21.869 6.69735 21.869 9.5416 20.2005 11.2937C17.4844 14.1457 14.7717 17.0011 12.0556 19.8532L3.91069 11.285C2.24305 9.53055 2.24217 6.68866 3.91069 4.93666C4.74492 4.06064 5.80806 3.6238 6.87324 3.6238Z" fill="#CCCCCC"/>
</svg>
