<svg width="20" height="20" viewBox="0 0 30 30" fill="none" xmlns="http://www.w3.org/2000/svg">
<path fill-rule="evenodd" clip-rule="evenodd" d="M15.8323 6.64584L13.4455 10.4671C11.1448 10.7465 9.05797 11.6427 7.18484 12.9927C6.3397 13.6018 5.5588 14.2954 4.85422 15.0627C5.18797 15.5633 5.78234 16.2721 6.65609 17.0071C7.23547 17.4927 7.86734 17.924 8.55734 18.2915L7.01422 20.7627C6.8651 21.0002 6.74309 21.2537 6.65047 21.5183C2.71109 19.3733 1.22234 16.259 1.22234 16.259C0.669219 15.389 0.747969 14.0521 1.45484 13.2796C1.45484 13.2796 6.37297 6.62334 14.9961 6.62334C15.2792 6.62334 15.5586 6.63084 15.8323 6.64584ZM23.2198 8.91834C26.6923 10.9621 28.5823 13.6302 28.5823 13.6302C29.2442 14.4196 29.3398 15.7808 28.7511 16.6077C28.7511 16.6077 25.3123 23.4983 14.9998 23.4983C14.713 23.4983 14.4317 23.4927 14.1561 23.4815L16.528 19.6865C19.4173 19.4465 21.6598 18.5202 23.3961 17.1271C24.2455 16.4465 24.8211 15.7958 25.1455 15.3365C25.258 15.1771 25.3423 15.0402 25.3948 14.9333C25.4817 14.7589 25.582 14.5915 25.6948 14.4327C25.303 14.984 25.2992 15.4696 25.6161 15.9215L25.5223 15.7958C25.4042 15.6373 25.279 15.484 25.1473 15.3365C24.0323 14.0613 22.72 12.9731 21.2605 12.1133L22.9817 9.35709C23.0717 9.21459 23.1505 9.06647 23.218 8.91834H23.2198ZM11.2986 23.7777C11.1006 24.0896 10.788 24.311 10.4281 24.3942C10.0682 24.4774 9.69006 24.4157 9.37532 24.2223C9.06059 24.029 8.83456 23.7196 8.74606 23.361C8.65755 23.0024 8.71369 22.6234 8.90234 22.3058L18.7573 6.25772C18.8526 6.09744 18.9787 5.9577 19.1284 5.84662C19.2781 5.73554 19.4484 5.65533 19.6294 5.61067C19.8104 5.566 19.9984 5.55776 20.1827 5.58644C20.3669 5.61511 20.5435 5.68013 20.7024 5.7777C20.8612 5.87527 20.9991 6.00345 21.1079 6.15478C21.2168 6.30611 21.2945 6.47758 21.3365 6.65921C21.3784 6.84084 21.3839 7.02901 21.3525 7.21276C21.3211 7.39652 21.2535 7.5722 21.1536 7.72959L11.2986 23.7796V23.7777Z" fill="#A7A7A7"/>
</svg>
