<svg width="18" height="17" viewBox="0 0 18 17" fill="none" xmlns="http://www.w3.org/2000/svg">
<path d="M18 4.08703V12.9832C18 14.7693 16.6146 16.2141 14.9128 16.2141H3.0982C1.3964 16.2141 0.011 14.7693 0 12.9832V4.08703C0.011 2.30091 1.3964 0.856201 3.0982 0.856201H14.9128C16.6146 0.856201 18 2.30091 18 4.08703ZM16.3636 10.9696V4.08703C16.3636 3.24527 15.72 2.56265 14.9126 2.56265H3.0982C2.291 2.56265 1.6472 3.24527 1.6364 4.08703V9.62726L4.4836 6.66944C4.9418 6.18036 5.5636 5.94135 6.1636 5.94135C6.7636 5.94135 7.3854 6.18015 7.8436 6.66944L11.989 10.9923C12.1308 11.1402 12.3162 11.2198 12.5126 11.2198C12.698 11.2198 12.8836 11.1402 13.0362 10.9923C13.4944 10.5032 14.1052 10.2642 14.7162 10.2642C15.3054 10.2642 15.9054 10.503 16.3636 10.9696ZM16.32 13.3244L15.229 12.1982C15.0872 12.0503 14.9018 11.9707 14.7162 11.9707C14.5198 11.9707 14.3344 12.0503 14.1926 12.1982C13.7236 12.676 13.1126 12.9263 12.5126 12.9263C11.9016 12.9263 11.2908 12.676 10.8326 12.1982L6.6872 7.87513C6.5344 7.71579 6.36 7.64759 6.1636 7.64759C5.9672 7.64759 5.7926 7.71579 5.64 7.87513L1.6364 12.0503V12.9832C1.6474 13.825 2.291 14.5076 3.0982 14.5076H14.9128C15.611 14.5074 16.1782 14.0068 16.32 13.3244Z" fill="#808080"/>
<path d="M12.513 3.81396C13.7566 3.81396 14.7602 4.86053 14.7602 6.15736C14.7602 7.4542 13.7566 8.51223 12.513 8.51223C11.2694 8.51223 10.2656 7.4542 10.2656 6.15736C10.2656 4.86053 11.2692 3.81396 12.513 3.81396ZM13.1238 6.15736C13.1238 5.80469 12.851 5.52021 12.5128 5.52021C12.1746 5.52021 11.9018 5.80469 11.9018 6.15736C11.9018 6.51004 12.1746 6.80578 12.5128 6.80578C12.851 6.80578 13.1238 6.51004 13.1238 6.15736Z" fill="#808080"/>
</svg>
