<svg width="203" height="203" viewBox="0 0 203 203" fill="none" xmlns="http://www.w3.org/2000/svg">
<circle cx="101.5" cy="101.5" r="101.5" fill="#E6E6E6"/>
<mask id="mask0_1928_4718" style="mask-type:alpha" maskUnits="userSpaceOnUse" x="0" y="0" width="203" height="203">
<circle cx="101.5" cy="101.5" r="101.5" fill="#E6E6E6"/>
</mask>
<g mask="url(#mask0_1928_4718)">
<path d="M130.512 144.022H72.4876C55.7686 144.022 42 157.627 42 174.51V202.703C42 208.44 46.7534 213.193 52.4904 213.193H150.51C156.247 213.193 161 208.44 161 202.703V174.346C161 157.627 147.231 144.022 130.512 144.022ZM154.444 202.539C154.444 204.67 152.64 206.473 150.51 206.473H52.4904C50.3595 206.473 48.5565 204.67 48.5565 202.539V174.346C48.5565 161.233 59.2107 150.415 72.4876 150.415H130.512C143.625 150.415 154.444 161.069 154.444 174.346V202.539Z" fill="#D6D6D6"/>
<path d="M101.5 132.876C119.858 132.876 134.938 117.96 134.938 99.438C134.938 81.0799 120.022 66 101.5 66C82.978 66 68.062 80.916 68.062 99.438C68.062 117.796 83.1419 132.876 101.5 132.876ZM101.5 72.7204C116.252 72.7204 128.382 84.6859 128.382 99.6019C128.382 114.354 116.416 126.483 101.5 126.483C86.584 126.483 74.6185 114.518 74.6185 99.6019C74.6185 84.6859 86.748 72.7204 101.5 72.7204Z" fill="#D6D6D6"/>
</g>
</svg>
