<svg width="20" height="20" viewBox="0 0 20 20" fill="none" xmlns="http://www.w3.org/2000/svg">
<path d="M19.7291 18.2696L15.9966 14.5757C18.8293 11.0483 18.5627 5.85691 15.33 2.62895C13.6304 0.93178 11.3975 0 8.99806 0C6.59858 0 4.3324 0.93178 2.63277 2.62895C0.933132 4.32612 0 6.55574 0 8.98503C0 11.4143 0.933132 13.6439 2.63277 15.3411C4.3324 17.005 6.56525 17.9701 8.99806 17.9701C11.031 17.9701 13.0305 17.2712 14.5969 16.0067L18.2961 19.7005C18.496 19.9002 18.7293 20 18.9959 20C19.2625 20 19.5291 19.9002 19.6958 19.7005C20.0957 19.3012 20.0957 18.6689 19.7291 18.2696ZM15.9966 8.98503C15.9966 10.8486 15.2634 12.6123 13.9303 13.9102C12.5973 15.208 10.8643 15.9734 8.99806 15.9734C7.1318 15.9734 5.36551 15.2413 4.06579 13.9102C2.76607 12.579 1.99957 10.8486 1.99957 8.98503C1.99957 7.12146 2.73275 5.35774 4.06579 4.0599C5.39884 2.76206 7.09847 1.99667 8.99806 1.99667C10.8643 1.99667 12.6306 2.72879 13.9303 4.0599C15.2301 5.39102 15.9966 7.08819 15.9966 8.98503Z" fill="#CCCCCC"/>
</svg>
