<svg width="22" height="20" viewBox="0 0 22 20" fill="none" xmlns="http://www.w3.org/2000/svg">
<g opacity="0.7">
<path fill-rule="evenodd" clip-rule="evenodd" d="M1.23811 10.5736C0.919287 10.2568 0.909503 9.73118 1.23282 9.4068C1.23282 9.4068 4.96791 5 11.1187 5C17.2696 5 20.772 9.3869 20.772 9.3869C21.0828 9.72551 21.0868 10.2688 20.7652 10.5932C20.7652 10.5932 17.0277 15 11.1187 15C5.20976 15 1.23811 10.5736 1.23811 10.5736ZM10.9978 13.3333C12.9008 13.3333 14.4435 11.8409 14.4435 10C14.4435 8.15905 12.9008 6.66667 10.9978 6.66667C9.09484 6.66667 7.55216 8.15905 7.55216 10C7.55216 11.8409 9.09484 13.3333 10.9978 13.3333ZM11.0033 11.6667C10.0518 11.6667 9.33663 10.9205 9.33663 10C9.33663 9.07953 10.0518 8.33333 11.0033 8.33333C11.9548 8.33333 12.67 9.07953 12.67 10C12.67 10.9205 11.9548 11.6667 11.0033 11.6667Z" fill="#A7A7A7"/>
</g>
</svg>
