<svg width="current" height="131" viewBox="0 0 352 131" fill="none" xmlns="http://www.w3.org/2000/svg">
<g clip-path="url(#clip0_1503_1609)">
<path d="M108.082 97.0145C111.31 97.0145 113.804 95.1126 115.638 91.2357C117.472 87.3588 118.352 81.8725 118.352 74.8502V32.2039H109.696V28.1807H144.615V32.2039H134.564V74.777C134.564 75.728 134.564 76.6058 134.418 77.5567C134.271 78.5077 134.124 79.3123 133.978 80.1169C134.344 80.1169 134.711 80.0438 135.005 79.9706C135.371 79.9706 135.738 79.9706 136.032 79.9706C139.039 79.9706 141.46 80.9216 143.294 82.7503C145.128 84.6522 146.082 87.0662 146.082 90.0653C146.082 93.0644 145.128 95.5515 143.294 97.4534C141.46 99.3553 139.039 100.233 136.032 100.233C133.537 100.233 131.41 99.5748 129.723 98.3312C128.036 97.0877 126.862 95.3321 126.275 93.2107C123.781 95.4052 120.993 97.1608 117.839 98.4044C114.684 99.6479 111.383 100.233 108.082 100.233V97.0145ZM148.136 63.8046H138.599V58.9767H148.136V28.1807H165.228V101.038H148.136V63.8046ZM168.016 28.1807H185.769V101.916H168.016V28.1807Z" fill="black"/>
<path d="M193.617 97.8923H221.493V83.9207H202.127C199.559 83.9207 197.505 83.1892 195.965 81.6531C194.424 80.1169 193.691 78.0688 193.691 75.5085C193.691 72.9483 194.424 70.9001 195.965 69.2908C197.505 67.7547 199.559 66.95 202.127 66.95H249.59V58.0989H202.127C199.559 58.0989 197.505 57.2942 195.965 55.7581C194.424 54.222 193.691 52.1738 193.691 49.5404C193.691 46.907 194.424 44.9319 195.965 43.3958C197.505 41.8597 199.559 41.1282 202.127 41.1282H249.59V32.2039H195.304V28.1807H260.52C263.088 28.1807 265.142 28.9853 266.756 30.5215C268.296 32.0576 269.103 34.1058 269.103 36.7392C269.103 39.3726 268.296 41.3476 266.756 42.9569C265.215 44.493 263.161 45.2977 260.52 45.2977H213.057V54.1488H260.52C263.088 54.1488 265.142 54.9535 266.756 56.4896C268.37 58.0257 269.103 60.0739 269.103 62.561C269.103 65.0481 268.296 67.1695 266.756 68.7787C265.215 70.388 263.161 71.1195 260.52 71.1195H213.057V79.9706H269.03V83.9939H241.74V96.283C241.74 97.3803 242.254 97.9655 243.354 97.9655H269.69V101.989H193.617V97.9655V97.8923Z" fill="#2F2F28"/>
<path d="M278.787 33.1547H294.046V26.498H313.486V33.1547H329.184V37.1779H278.86V33.1547H278.787ZM279.594 74.5574H299.034V79.3121L315.833 88.3827L332.559 79.3121V74.5574H351.999V101.769H332.559L315.833 92.6985L299.034 101.769H279.594V74.5574ZM279.961 55.319C279.961 44.7123 287.957 39.4455 303.876 39.4455C319.795 39.4455 327.717 44.7123 327.717 55.319C327.717 60.5126 325.737 64.4627 321.849 67.0961C317.887 69.7295 311.945 71.1194 303.876 71.1194C295.806 71.1194 289.864 69.8027 285.903 67.0961C281.942 64.4627 279.961 60.5126 279.961 55.319ZM303.876 68.6323C304.829 68.6323 305.636 68.4128 306.297 68.0471C306.957 67.6813 307.544 66.9498 307.984 65.9257C308.424 64.9016 308.717 63.5118 308.937 61.8293C309.084 60.0737 309.231 57.9524 309.231 55.319C309.231 52.6856 309.158 50.418 308.937 48.6624C308.791 46.9068 308.424 45.5901 307.984 44.566C307.544 43.5419 306.957 42.8836 306.297 42.4447C305.636 42.0058 304.829 41.8595 303.876 41.8595C302.849 41.8595 302.042 42.0789 301.382 42.4447C300.721 42.8836 300.208 43.5419 299.768 44.566C299.328 45.5901 299.034 46.9068 298.814 48.6624C298.667 50.418 298.521 52.6125 298.521 55.319C298.521 58.0256 298.594 60.1469 298.814 61.8293C298.961 63.5849 299.328 64.9016 299.768 65.9257C300.208 66.9498 300.721 67.6813 301.382 68.0471C302.042 68.4128 302.849 68.6323 303.876 68.6323ZM311.798 90.504L299.034 83.5548V97.4532L311.798 90.504ZM332.559 97.4532V83.5548L319.795 90.504L332.559 97.4532ZM332.559 28.1073H351.999V71.4851H332.559V28.1073Z" fill="#6C75C4"/>
<g clip-path="url(#clip1_1503_1609)">
<path d="M108.082 97.0145C111.31 97.0145 113.804 95.1126 115.638 91.2357C117.472 87.3588 118.352 81.8725 118.352 74.8502V32.2039H109.696V28.1807H144.615V32.2039H134.564V74.777C134.564 75.728 134.564 76.6058 134.418 77.5567C134.271 78.5077 134.124 79.3123 133.978 80.1169C134.344 80.1169 134.711 80.0438 135.005 79.9706C135.371 79.9706 135.738 79.9706 136.032 79.9706C139.039 79.9706 141.46 80.9216 143.294 82.7503C145.128 84.6522 146.082 87.0662 146.082 90.0653C146.082 93.0644 145.128 95.5515 143.294 97.4534C141.46 99.3553 139.039 100.233 136.032 100.233C133.537 100.233 131.41 99.5748 129.723 98.3312C128.036 97.0877 126.862 95.3321 126.275 93.2107C123.781 95.4052 120.993 97.1608 117.839 98.4044C114.684 99.6479 111.383 100.233 108.082 100.233V97.0145ZM148.136 63.8046H138.599V58.9767H148.136V28.1807H165.228V101.038H148.136V63.8046ZM168.016 28.1807H185.769V101.916H168.016V28.1807Z" fill="black"/>
<path d="M193.617 97.8923H221.493V83.9207H202.127C199.559 83.9207 197.505 83.1892 195.965 81.6531C194.424 80.1169 193.691 78.0688 193.691 75.5085C193.691 72.9483 194.424 70.9001 195.965 69.2908C197.505 67.7547 199.559 66.95 202.127 66.95H249.59V58.0989H202.127C199.559 58.0989 197.505 57.2942 195.965 55.7581C194.424 54.222 193.691 52.1738 193.691 49.5404C193.691 46.907 194.424 44.9319 195.965 43.3958C197.505 41.8597 199.559 41.1282 202.127 41.1282H249.59V32.2039H195.304V28.1807H260.52C263.088 28.1807 265.142 28.9853 266.756 30.5215C268.296 32.0576 269.103 34.1058 269.103 36.7392C269.103 39.3726 268.296 41.3476 266.756 42.9569C265.215 44.493 263.161 45.2977 260.52 45.2977H213.057V54.1488H260.52C263.088 54.1488 265.142 54.9535 266.756 56.4896C268.37 58.0257 269.103 60.0739 269.103 62.561C269.103 65.0481 268.296 67.1695 266.756 68.7787C265.215 70.388 263.161 71.1195 260.52 71.1195H213.057V79.9706H269.03V83.9939H241.74V96.283C241.74 97.3803 242.254 97.9655 243.354 97.9655H269.69V101.989H193.617V97.9655V97.8923Z" fill="#2F2F28"/>
<path d="M278.787 33.1547H294.046V26.498H313.486V33.1547H329.184V37.1779H278.86V33.1547H278.787ZM279.594 74.5574H299.034V79.3121L315.833 88.3827L332.559 79.3121V74.5574H351.999V101.769H332.559L315.833 92.6985L299.034 101.769H279.594V74.5574ZM279.961 55.319C279.961 44.7123 287.957 39.4455 303.876 39.4455C319.795 39.4455 327.717 44.7123 327.717 55.319C327.717 60.5126 325.737 64.4627 321.849 67.0961C317.887 69.7295 311.945 71.1194 303.876 71.1194C295.806 71.1194 289.864 69.8027 285.903 67.0961C281.942 64.4627 279.961 60.5126 279.961 55.319ZM303.876 68.6323C304.829 68.6323 305.636 68.4128 306.297 68.0471C306.957 67.6813 307.544 66.9498 307.984 65.9257C308.424 64.9016 308.717 63.5118 308.937 61.8293C309.084 60.0737 309.231 57.9524 309.231 55.319C309.231 52.6856 309.158 50.418 308.937 48.6624C308.791 46.9068 308.424 45.5901 307.984 44.566C307.544 43.5419 306.957 42.8836 306.297 42.4447C305.636 42.0058 304.829 41.8595 303.876 41.8595C302.849 41.8595 302.042 42.0789 301.382 42.4447C300.721 42.8836 300.208 43.5419 299.768 44.566C299.328 45.5901 299.034 46.9068 298.814 48.6624C298.667 50.418 298.521 52.6125 298.521 55.319C298.521 58.0256 298.594 60.1469 298.814 61.8293C298.961 63.5849 299.328 64.9016 299.768 65.9257C300.208 66.9498 300.721 67.6813 301.382 68.0471C302.042 68.4128 302.849 68.6323 303.876 68.6323ZM311.798 90.504L299.034 83.5548V97.4532L311.798 90.504ZM332.559 97.4532V83.5548L319.795 90.504L332.559 97.4532ZM332.559 28.1073H351.999V71.4851H332.559V28.1073Z" fill="url(#paint0_linear_1503_1609)"/>
</g>
</g>
<g clip-path="url(#clip2_1503_1609)">
<path fill-rule="evenodd" clip-rule="evenodd" d="M0 81.8324V61.6936L34.1558 27.6191V55.2381L17.5912 71.7633L48.7353 102.833V130.452L0 81.8324Z" fill="#8A96DB"/>
<path fill-rule="evenodd" clip-rule="evenodd" d="M82.8915 48.6195V68.7583L48.7357 102.833V75.2138L65.3004 58.6885L34.1562 27.6189V0L82.8915 48.6195Z" fill="#8A96DB"/>
<path fill-rule="evenodd" clip-rule="evenodd" d="M48.7344 75.2137L65.2991 58.6885L79.1411 72.4983L48.7344 102.833V75.2137Z" fill="#6264ca"/>
<path fill-rule="evenodd" clip-rule="evenodd" d="M34.1567 55.2381L17.592 71.7633L3.75 57.9535L34.1567 27.6191V55.2381Z" fill="#6264ca"/>
</g>
<defs>
<linearGradient id="paint0_linear_1503_1609" x1="207.999" y1="82.0001" x2="335.499" y2="16.0001" gradientUnits="userSpaceOnUse">
<stop offset="0.487013" stop-color="#20202B"/>
<stop offset="0.876221" stop-color="#5E65B3" stop-opacity="0.123779"/>
<stop offset="1" stop-color="#6264ca" stop-opacity="0"/>
</linearGradient>
<clipPath id="clip0_1503_1609">
<rect width="243.917" height="75.4173" fill="white" transform="translate(108.082 26.498)"/>
</clipPath>
<clipPath id="clip1_1503_1609">
<rect width="243.917" height="75.4173" fill="white" transform="translate(108.082 26.498)"/>
</clipPath>
<clipPath id="clip2_1503_1609">
<rect width="82.8911" height="130.452" fill="white"/>
</clipPath>
</defs>
</svg>
